<svg xmlns="http://www.w3.org/2000/svg" xmlns:xlink="http://www.w3.org/1999/xlink" viewBox="0 0 81.13 37.3"><defs><style>.cls-1{fill:url(#未命名漸層_512);}.cls-2{fill:#1a1a1a;}.cls-3{fill:url(#未命名漸層_581);}.cls-4{fill:url(#未命名漸層_573);}.cls-5{fill:url(#未命名漸層_559);}.cls-6{fill:url(#未命名漸層_512-2);}</style><linearGradient id="未命名漸層_512" x1="28.64" y1="-1.08" x2="54.6" y2="24.88" gradientUnits="userSpaceOnUse"><stop offset="0" stop-color="#e95750"/><stop offset="1" stop-color="#f09580"/></linearGradient><linearGradient id="未命名漸層_581" x1="23.94" y1="8.73" x2="45.73" y2="30.52" gradientUnits="userSpaceOnUse"><stop offset="0" stop-color="#e7332e"/><stop offset="1" stop-color="#ed7c6f"/></linearGradient><linearGradient id="未命名漸層_573" x1="29.31" y1="14.41" x2="29.31" y2="-0.8" gradientUnits="userSpaceOnUse"><stop offset="0" stop-color="#f19d96"/><stop offset="1" stop-color="#eb7063"/></linearGradient><linearGradient id="未命名漸層_559" x1="51.84" y1="13.86" x2="51.84" y2="0.65" gradientUnits="userSpaceOnUse"><stop offset="0.01" stop-color="#f6c0bd"/><stop offset="1" stop-color="#ef918b"/></linearGradient><linearGradient id="未命名漸層_512-2" x1="40.82" y1="14.34" x2="52.53" y2="26.05" xlink:href="#未命名漸層_512"/></defs><g id="LOGO_設計" data-name="LOGO 設計"><polygon class="cls-1" points="56.7 0.54 40.57 0.54 24.44 0.54 18.05 13.44 40.57 37.28 63.11 13.44 56.7 0.54"/><path class="cls-2" d="M76.33,11.47V6.64a6.45,6.45,0,0,0-1.86-4.8A6.82,6.82,0,0,0,69.58,0H65.19V5.18H69a2,2,0,0,1,2.16,2.14v5.31a5.19,5.19,0,0,0,1.46,3.88,7.59,7.59,0,0,0,3.9,1.8,7.51,7.51,0,0,0-3.9,1.79A5.21,5.21,0,0,0,71.17,24V29.3A2,2,0,0,1,69,31.43H65.19v5.16h4.39a6.82,6.82,0,0,0,4.89-1.82A6.45,6.45,0,0,0,76.33,30V25.14c0-2.66,1.42-4.2,4.43-4.2V15.67C77.75,15.67,76.33,14.14,76.33,11.47Z"/><path class="cls-2" d="M10,12.63V7.32a2,2,0,0,1,2.16-2.14h3.82V0H11.56a6.83,6.83,0,0,0-4.9,1.82,6.45,6.45,0,0,0-1.85,4.8v4.83c0,2.67-1.43,4.2-4.44,4.2v5.27c3,0,4.44,1.54,4.44,4.2V30a6.45,6.45,0,0,0,1.85,4.8,6.83,6.83,0,0,0,4.9,1.82h4.38V31.43H12.12A2,2,0,0,1,10,29.3V24A5.21,5.21,0,0,0,8.5,20.1a7.51,7.51,0,0,0-3.9-1.79,7.59,7.59,0,0,0,3.9-1.8A5.19,5.19,0,0,0,10,12.63Z"/><polygon class="cls-3" points="18.05 13.44 40.57 37.28 40.57 13.44 18.05 13.44"/><polygon class="cls-4" points="40.57 0.54 24.44 0.54 18.05 13.44 40.57 13.44 40.57 0.54"/><polygon class="cls-5" points="63.11 13.44 56.7 0.54 40.57 0.54 40.57 13.44 63.11 13.44"/><polygon class="cls-6" points="40.57 13.44 40.57 37.28 63.11 13.44 40.57 13.44"/></g></svg>